<svg width="48" height="48" viewBox="0 0 48 48" fill="none" xmlns="http://www.w3.org/2000/svg">
<path d="M37.42 14.42C37.2341 14.2325 37.0129 14.0838 36.7692 13.9822C36.5255 13.8807 36.264 13.8284 36 13.8284C35.736 13.8284 35.4746 13.8807 35.2309 13.9822C34.9872 14.0838 34.766 14.2325 34.58 14.42L19.68 29.34L13.42 23.06C13.227 22.8735 12.9991 22.7269 12.7494 22.6285C12.4997 22.5301 12.233 22.4818 11.9647 22.4865C11.6963 22.4911 11.4315 22.5486 11.1853 22.6555C10.9392 22.7625 10.7165 22.917 10.53 23.11C10.3435 23.303 10.1969 23.5309 10.0985 23.7806C10.0001 24.0303 9.95184 24.297 9.95648 24.5654C9.96113 24.8337 10.0186 25.0985 10.1256 25.3447C10.2326 25.5908 10.387 25.8135 10.58 26L18.26 33.68C18.4459 33.8675 18.6672 34.0162 18.9109 34.1178C19.1546 34.2193 19.416 34.2716 19.68 34.2716C19.944 34.2716 20.2055 34.2193 20.4492 34.1178C20.6929 34.0162 20.9141 33.8675 21.1 33.68L37.42 17.36C37.623 17.1727 37.785 16.9454 37.8959 16.6924C38.0067 16.4394 38.0639 16.1662 38.0639 15.89C38.0639 15.6138 38.0067 15.3406 37.8959 15.0876C37.785 14.8346 37.623 14.6073 37.42 14.42Z" fill="#2292E3"/>
</svg>
