<svg width="48" height="48" viewBox="0 0 48 48" fill="none" xmlns="http://www.w3.org/2000/svg">
<path d="M26.82 24L35.42 15.42C35.7966 15.0434 36.0082 14.5326 36.0082 14C36.0082 13.4674 35.7966 12.9566 35.42 12.58C35.0434 12.2034 34.5326 11.9918 34 11.9918C33.4674 11.9918 32.9566 12.2034 32.58 12.58L24 21.18L15.42 12.58C15.0434 12.2034 14.5326 11.9918 14 11.9918C13.4674 11.9918 12.9566 12.2034 12.58 12.58C12.2034 12.9566 11.9918 13.4674 11.9918 14C11.9918 14.5326 12.2034 15.0434 12.58 15.42L21.18 24L12.58 32.58C12.3925 32.7659 12.2438 32.9871 12.1422 33.2308C12.0407 33.4746 11.9884 33.736 11.9884 34C11.9884 34.264 12.0407 34.5254 12.1422 34.7692C12.2438 35.0129 12.3925 35.2341 12.58 35.42C12.7659 35.6075 12.9871 35.7562 13.2308 35.8578C13.4746 35.9593 13.736 36.0116 14 36.0116C14.264 36.0116 14.5254 35.9593 14.7692 35.8578C15.0129 35.7562 15.2341 35.6075 15.42 35.42L24 26.82L32.58 35.42C32.7659 35.6075 32.9871 35.7562 33.2308 35.8578C33.4746 35.9593 33.736 36.0116 34 36.0116C34.264 36.0116 34.5254 35.9593 34.7692 35.8578C35.0129 35.7562 35.2341 35.6075 35.42 35.42C35.6075 35.2341 35.7562 35.0129 35.8578 34.7692C35.9593 34.5254 36.0116 34.264 36.0116 34C36.0116 33.736 35.9593 33.4746 35.8578 33.2308C35.7562 32.9871 35.6075 32.7659 35.42 32.58L26.82 24Z" fill="#2292E3"/>
</svg>
