<svg width="64" height="64" viewBox="0 0 64 64" fill="none" xmlns="http://www.w3.org/2000/svg">
<path d="M53.3333 21.3333L37.3333 7.30667C35.8666 5.99479 33.9678 5.26952 31.9999 5.26952C30.0321 5.26952 28.1333 5.99479 26.6666 7.30667L10.6666 21.3333C9.8196 22.0909 9.14368 23.0202 8.68387 24.0593C8.22406 25.0985 7.99091 26.2237 7.99995 27.36V50.6667C7.99995 52.7884 8.8428 54.8232 10.3431 56.3235C11.8434 57.8238 13.8782 58.6667 15.9999 58.6667H47.9999C50.1217 58.6667 52.1565 57.8238 53.6568 56.3235C55.1571 54.8232 55.9999 52.7884 55.9999 50.6667V27.3333C56.0052 26.2015 55.7702 25.0814 55.3105 24.0471C54.8508 23.0129 54.1769 22.0879 53.3333 21.3333ZM37.3333 53.3333H26.6666V40C26.6666 39.2928 26.9476 38.6145 27.4477 38.1144C27.9478 37.6143 28.626 37.3333 29.3333 37.3333H34.6666C35.3739 37.3333 36.0521 37.6143 36.5522 38.1144C37.0523 38.6145 37.3333 39.2928 37.3333 40V53.3333ZM50.6666 50.6667C50.6666 51.3739 50.3857 52.0522 49.8856 52.5523C49.3855 53.0524 48.7072 53.3333 47.9999 53.3333H42.6666V40C42.6666 37.8783 41.8238 35.8434 40.3235 34.3431C38.8232 32.8429 36.7883 32 34.6666 32H29.3333C27.2115 32 25.1767 32.8429 23.6764 34.3431C22.1761 35.8434 21.3333 37.8783 21.3333 40V53.3333H15.9999C15.2927 53.3333 14.6144 53.0524 14.1143 52.5523C13.6142 52.0522 13.3333 51.3739 13.3333 50.6667V27.3333C13.3338 26.9547 13.4149 26.5805 13.5712 26.2357C13.7275 25.8908 13.9555 25.5832 14.2399 25.3333L30.2399 11.3333C30.7266 10.9058 31.3522 10.67 31.9999 10.67C32.6477 10.67 33.2733 10.9058 33.7599 11.3333L49.7599 25.3333C50.0444 25.5832 50.2724 25.8908 50.4287 26.2357C50.585 26.5805 50.6661 26.9547 50.6666 27.3333V50.6667Z" fill="white"/>
</svg>
