<svg width="64" height="64" viewBox="0 0 64 64" fill="none" xmlns="http://www.w3.org/2000/svg">
<path d="M29.3333 31.7333V45.3333C29.3333 46.0405 29.6143 46.7188 30.1144 47.2189C30.6145 47.719 31.2928 48 32 48C32.7072 48 33.3855 47.719 33.8856 47.2189C34.3857 46.7188 34.6667 46.0405 34.6667 45.3333V31.7333C37.9041 31.0725 40.7809 29.2331 42.7392 26.5717C44.6975 23.9104 45.5979 20.6167 45.2658 17.3292C44.9337 14.0418 43.3928 10.9947 40.9417 8.77881C38.4907 6.56291 35.3042 5.33603 32 5.33603C28.6958 5.33603 25.5093 6.56291 23.0583 8.77881C20.6072 10.9947 19.0663 14.0418 18.7342 17.3292C18.4021 20.6167 19.3025 23.9104 21.2608 26.5717C23.2191 29.2331 26.0959 31.0725 29.3333 31.7333ZM32 10.6666C33.5823 10.6666 35.129 11.1358 36.4446 12.0149C37.7602 12.8939 38.7855 14.1434 39.391 15.6052C39.9965 17.067 40.155 18.6755 39.8463 20.2274C39.5376 21.7792 38.7757 23.2047 37.6569 24.3235C36.538 25.4423 35.1126 26.2042 33.5607 26.5129C32.0089 26.8216 30.4003 26.6632 28.9385 26.0577C27.4767 25.4522 26.2273 24.4268 25.3482 23.1112C24.4692 21.7956 24 20.2489 24 18.6666C24 16.5449 24.8429 14.5101 26.3431 13.0098C27.8434 11.5095 29.8783 10.6666 32 10.6666ZM43.2267 38.4533C42.8765 38.3798 42.5152 38.3759 42.1636 38.442C41.8119 38.5081 41.4767 38.6427 41.177 38.8384C40.8774 39.034 40.6192 39.2867 40.4173 39.5821C40.2153 39.8775 40.0735 40.2098 40 40.56C39.9265 40.9102 39.9226 41.2714 39.9887 41.6231C40.0548 41.9748 40.1894 42.31 40.3851 42.6096C40.5807 42.9092 40.8334 43.1674 41.1288 43.3693C41.4242 43.5713 41.7565 43.7131 42.1067 43.7866C48.16 44.9866 50.6667 47.1466 50.6667 48C50.6667 49.5466 44.1333 53.3333 32 53.3333C19.8667 53.3333 13.3333 49.5466 13.3333 48C13.3333 47.1466 15.84 44.9866 21.8933 43.68C22.2435 43.6064 22.5758 43.4646 22.8712 43.2627C23.1666 43.0607 23.4193 42.8026 23.6149 42.5029C23.8106 42.2033 23.9452 41.8681 24.0113 41.5164C24.0774 41.1647 24.0735 40.8035 24 40.4533C23.9265 40.1031 23.7847 39.7708 23.5827 39.4754C23.3808 39.18 23.1226 38.9273 22.823 38.7317C22.5233 38.5361 22.1881 38.4014 21.8365 38.3353C21.4848 38.2693 21.1235 38.2731 20.7733 38.3466C12.6667 40.2133 8 43.7066 8 48C8 55.0133 20.08 58.6666 32 58.6666C43.92 58.6666 56 55.0133 56 48C56 43.7066 51.3333 40.2133 43.2267 38.4533Z" fill="white" fill-opacity="0.6"/>
</svg>
