<svg width="64" height="64" viewBox="0 0 64 64" fill="none" xmlns="http://www.w3.org/2000/svg">
<path d="M32 5.33334C26.8279 5.34317 21.7703 6.85684 17.4433 9.68998C13.1162 12.5231 9.70638 16.5535 7.62916 21.2901C5.55195 26.0267 4.89699 31.2651 5.74406 36.3674C6.59113 41.4696 8.90366 46.2154 12.4 50.0267C14.8971 52.7335 17.9278 54.8937 21.3012 56.3712C24.6745 57.8488 28.3173 58.6116 32 58.6116C35.6827 58.6116 39.3255 57.8488 42.6988 56.3712C46.0721 54.8937 49.1029 52.7335 51.6 50.0267C55.0963 46.2154 57.4089 41.4696 58.2559 36.3674C59.103 31.2651 58.448 26.0267 56.3708 21.2901C54.2936 16.5535 50.8838 12.5231 46.5567 9.68998C42.2296 6.85684 37.172 5.34317 32 5.33334ZM32 53.3333C26.4759 53.325 21.1704 51.1741 17.2 47.3333C18.4054 44.3988 20.4561 41.8888 23.0913 40.1224C25.7266 38.356 28.8275 37.4128 32 37.4128C35.1725 37.4128 38.2734 38.356 40.9086 40.1224C43.5439 41.8888 45.5945 44.3988 46.8 47.3333C42.8295 51.1741 37.5241 53.325 32 53.3333ZM26.6667 26.6667C26.6667 25.6118 26.9795 24.5807 27.5655 23.7036C28.1515 22.8266 28.9845 22.143 29.959 21.7393C30.9335 21.3357 32.0059 21.23 33.0405 21.4358C34.075 21.6416 35.0253 22.1496 35.7712 22.8954C36.5171 23.6413 37.0251 24.5916 37.2308 25.6262C37.4366 26.6608 37.331 27.7331 36.9273 28.7077C36.5237 29.6822 35.8401 30.5151 34.963 31.1012C34.086 31.6872 33.0548 32 32 32C30.5855 32 29.2289 31.4381 28.2288 30.4379C27.2286 29.4377 26.6667 28.0812 26.6667 26.6667ZM50.4267 42.6667C48.0441 38.5914 44.3771 35.4214 40 33.6533C41.3578 32.1138 42.2425 30.2151 42.5479 28.1852C42.8534 26.1553 42.5666 24.0803 41.722 22.2093C40.8774 20.3384 39.5109 18.7508 37.7864 17.6373C36.0619 16.5237 34.0528 15.9313 32 15.9313C29.9472 15.9313 27.938 16.5237 26.2136 17.6373C24.4891 18.7508 23.1226 20.3384 22.278 22.2093C21.4334 24.0803 21.1466 26.1553 21.4521 28.1852C21.7575 30.2151 22.6422 32.1138 24 33.6533C19.6229 35.4214 15.9559 38.5914 13.5733 42.6667C11.6745 39.4323 10.6712 35.7506 10.6667 32C10.6667 26.3421 12.9143 20.9158 16.915 16.9151C20.9158 12.9143 26.342 10.6667 32 10.6667C37.6579 10.6667 43.0842 12.9143 47.0849 16.9151C51.0857 20.9158 53.3333 26.3421 53.3333 32C53.3287 35.7506 52.3255 39.4323 50.4267 42.6667Z" fill="white" fill-opacity="0.6"/>
</svg>
