<svg xmlns="http://www.w3.org/2000/svg" viewBox="0 0 429.68 328.13"><defs><style>.cls-1{fill:#017fa7;}.cls-2{fill:#50b8ea;}</style></defs><path class="cls-1" d="M874.15,557.3c-3.31,11.61-6.5,22.82-9.71,34-1.92,6.71-1.94,6.71-9,6.71-25.63,0-51.27.09-76.9,0-17.6-.09-30.69-11.1-33.72-28.06a33.34,33.34,0,0,1-.38-5.83q0-47,0-94.07c0-19.22,14.57-33.87,33.78-33.9q42.74-.08,85.48,0c18.54,0,32.61,12.15,34,30.65a244.6,244.6,0,0,1-.19,42.1c-1.73,17.4-14.56,28.74-32,28.84-19.52.12-39,0-58.55.07-2.65,0-3.75-.27-2.82-3.39q5.08-17.17,9.68-34.49c.66-2.47,1.84-2.9,4.07-2.88,12,.08,23.95,0,35.91.1,2.64,0,3.69-.56,3.54-3.4a122.38,122.38,0,0,1,0-13.27c.15-2.88-.69-3.75-3.67-3.73-19.13.14-38.25,0-57.38.11-3.85,0-8.92-1.72-11.23.75s-.63,7.44-.64,11.31c-.06,21.6,0,43.19-.1,64.79,0,2.91.72,3.7,3.67,3.69,27.19-.12,54.38-.07,81.57-.07Z" transform="translate(-744.42 -375.14)"/><path class="cls-2" d="M1025.55,636.31c0,21.08,0,42.15.07,63.23,0,2.9-.72,3.74-3.67,3.7-11.19-.18-22.38-.21-33.56,0-3.37.06-4.35-.72-4.34-4.25.15-36.42,0-72.85.18-109.27,0-3.66-1-4.5-4.54-4.46q-27.32.26-54.64,0c-3.25,0-4.12.87-4.11,4.12.11,36.42,0,72.85.14,109.27,0,3.38-.6,4.7-4.39,4.61-11.18-.29-22.37-.17-33.56,0-2.58,0-3.61-.5-3.6-3.38.09-41.76,0-83.52.12-125.28a29.73,29.73,0,0,1,29.84-29.82q43.13-.24,86.25,0c16.75.11,29.74,13.52,29.8,30.29C1025.6,595.47,1025.55,615.89,1025.55,636.31Z" transform="translate(-744.42 -375.14)"/><path class="cls-1" d="M988.22,517.4H942.56c-17.61,0-30.37-11.94-30.57-29.49q-.48-41.75,0-83.51c.21-17.38,13-29.21,30.41-29.21,24.71,0,49.43,0,74.14-.05,2.66,0,4.09.4,4.85,3.43q4.17,16.6,9.08,33c1,3.37-.1,3.56-2.91,3.55-23.94-.09-47.87.06-71.8-.16-3.93,0-4.62,1.15-4.58,4.77.2,17.82.17,35.64,0,53.46,0,3,.83,3.61,3.69,3.6,31-.11,61.92,0,92.88-.13,3.5,0,4,.77,3,4.1-3.21,10.82-6.16,21.73-9,32.66-.77,3-1.9,4.09-5.21,4C1020.48,517.28,1004.35,517.4,988.22,517.4Z" transform="translate(-744.42 -375.14)"/><path class="cls-1" d="M1119.12,666q-24.21,0-48.41,0c-17.67,0-31.08-13.33-31.13-31.08q-.13-42.75,0-85.49a29.41,29.41,0,0,1,29.32-29.75c29.41-.18,58.82,0,88.22-.14,2.81,0,3.26.81,2.57,3.32-3.19,11.51-6.33,23-9.32,34.6-.62,2.39-1.8,2.87-4.06,2.86-21-.08-41.9,0-62.85-.13-3.26,0-4.08.81-4,4.06q.25,29.09,0,58.16c0,2.91.71,3.69,3.65,3.68,25.38-.12,50.75,0,76.13-.14,3,0,4.29.75,5.09,3.72,3,10.9,6.12,21.74,9.42,32.55,1,3.26.06,3.87-3.06,3.84C1153.47,665.9,1136.3,666,1119.12,666Z" transform="translate(-744.42 -375.14)"/></svg>